<?xml version="1.0" encoding="utf-8"?>
<!-- Generator: Adobe Illustrator 24.1.2, SVG Export Plug-In . SVG Version: 6.00 Build 0)  -->
<svg version="1.1" id="Calque_1" xmlns="http://www.w3.org/2000/svg" xmlns:xlink="http://www.w3.org/1999/xlink" x="0px" y="0px"
	 viewBox="0 0 283.5 283.5" style="enable-background:new 0 0 283.5 283.5;" xml:space="preserve">
<style type="text/css">
	.st0{fill:#F0BD05;}
</style>
<g id="Calque_4">
	<path class="st0" d="M140,111.1c-4.2-3.3-8.9-6.1-13.8-8.2c-21.2-9.6-42.8,7.6-44.2,26.8c-1.1,15.8,5.1,32.2,22.6,40.5
		c9.9,4.7,20.4,6.7,31.2,7.7c17.6,1.7,35.4,1.3,53.1,1.6c12.5,0.2,25,0.6,37.4,2.4c9.6,1.4,18.8,3.9,27.4,8.6
		c8.7,4.8,15.7,12.1,20.2,21c2.4,4.7,2.4,9.6,1.1,14.9c-0.4-0.3-0.6-0.4-0.7-0.6c-11.4-18.1-28.1-28.1-48.6-32.4
		c-10.8-2.3-21.7-2.2-32.7-1.2c-15.2,1.4-30.4,2.8-45.6,3.6c-15.4,0.8-30.8-0.2-45.6-4.7c-9.1-2.8-17.6-7-24.6-13.6
		c-8.7-8.2-13.5-18.4-15.3-30.1c-1-6.5-1.5-13.1-0.2-19.6c3.1-15.1,11.8-26.2,25.1-33.8c9.4-5.5,20.5-7.3,31.2-5.1
		c11.1,2.1,19.1,10.3,22.2,21.5C140.2,110.6,140.1,110.7,140,111.1z"/>
	<path class="st0" d="M129.4,153.8c4.5-4.2,8.5-9,11.9-14.1c4.6-7,7.2-15.2,7.6-23.6c0.4-11.5-4.3-20.8-13.3-27.8
		c-9.9-7.7-22-12.2-34.6-12.7c-9.1-0.5-18,0.1-26.7,3.1c-1.8,0.6-3.5,1.5-5.2,2.3c-1.2,0.6-2.4,1.3-3.7,1.9c-4.4,2-7,0.4-6.8-4.4
		c0.1-1.5,0.5-3.1,1.2-4.4c2.3-4.4,6.1-7.3,10.2-9.8c8.6-5,18.1-7.1,28-7.4c15.7-0.5,30.1,3.4,42.6,13.2
		c11.5,9.1,17.9,21.1,19.4,35.7c1.1,10.5,0,20.7-5.4,30C148.9,145.5,140.3,151.2,129.4,153.8z"/>
	<path class="st0" d="M98.8,83l-2.1,0.7c-13.9,4.2-26.1,12.6-35,24.1c-6.6,8.4-10.4,18.6-10.9,29.3c-0.9,14.8,1.3,29.1,7.9,42.6
		c2.2,4.4,5.2,8.4,7.9,12.6c1.3,1.9,2.5,3.9,3.5,6c1,2.2,0.1,4.1-2,5.3c-2.1,1.2-4.7,1.4-7,0.5c-4.2-1.4-8-3.8-11-6.9
		c-5-5-9-11-11.5-17.6c-5.8-14.6-8.6-29.7-5.3-45.1c5.1-23.8,18.8-40.7,42-49.2c7-2.4,14.4-3.4,21.7-2.8c0.6,0.1,1.3,0.2,1.9,0.3
		L98.8,83z"/>
	<path class="st0" d="M230.2,203.4c-4.3,0.6-8.6,1.2-12.9,1.9c-12,1.7-23.8,4.1-35.5,7.3c-14.7,4.1-29.6,6.9-44.8,7.3
		c-21.6,0.5-41.3-5.1-58.3-18.7c-4.6-3.4-8.2-7.9-10.7-13.1c-0.8-2-1.3-4.1-1.5-6.2c0-0.9,0.4-1.8,1.1-2.4c0.3-0.3,1.5,0.3,2.1,0.8
		c6.1,4.9,12.3,9.7,19.2,13.5c10.4,5.8,22,9.4,33.9,10.3c16.1,1.1,32.3,0.6,48.3-1.4c9-1,18-2.5,27.1-3.2s18.3-0.5,27.3,1.7
		c1.6,0.4,3.1,1.1,4.7,1.6L230.2,203.4z"/>
	<path class="st0" d="M136.1,159.6c2.2-1,4.4-1.9,6.5-3c13-6.7,20.5-17.5,24-31.4c2.4-9.6,1-19-1.2-28.3c-1.1-4.8-2-9.6-2.9-14.4
		c-0.2-1.1-0.1-2.3,0.1-3.4c0.8-4.1,4.7-5.8,8.1-3.5c4,2.7,6.6,6.7,8.5,11.1c6.4,14.7,5.5,29.4,0.4,44.2c-3.5,10.2-9.6,18.4-18.9,24
		C153.3,159.5,145,160.8,136.1,159.6z"/>
	<path class="st0" d="M45.1,97c-3.1,4.1-5.9,7.8-8.5,11.5c-5.9,8.2-9.9,17.2-11,27.3c-0.6,5.3-0.8,10.6-1.2,15.9
		c-0.6,8.9-1.2,17.8-1.8,26.6c-0.1,1.6-0.8,2.1-2.3,1.7c-3.4-0.8-6.2-3.3-7.4-6.6c-1.7-3.7-3-7.5-3.8-11.5
		c-1.8-9.2-1.6-18.6,0.6-27.8c3-12.3,10.5-21.6,20.6-28.8c4.2-3,8.8-5.2,13.3-7.8C44,97.4,44.5,97.2,45.1,97z"/>
</g>
</svg>
