<svg xmlns="http://www.w3.org/2000/svg" viewBox="0 0 192.5 51.35"><defs><style>.cls-1{fill:#c18b10;}</style></defs><g id="Noir_-_arabic" data-name="Noir - arabic"><path class="cls-1" d="M158.81,22.77a12.58,12.58,0,0,1,3-1.76c4.54-2.05,9.19,1.64,9.49,5.76a8.52,8.52,0,0,1-4.86,8.69,19.52,19.52,0,0,1-6.68,1.65c-3.79.37-7.58.29-11.38.35a63,63,0,0,0-8,.52,16.86,16.86,0,0,0-5.87,1.86,10.42,10.42,0,0,0-4.33,4.51,4.4,4.4,0,0,0-.23,3.18.56.56,0,0,0,.15-.11,15.4,15.4,0,0,1,10.41-6.94,23.54,23.54,0,0,1,7-.27c3.26.29,6.51.6,9.77.76A28.14,28.14,0,0,0,167,40,13,13,0,0,0,172.3,37a10.8,10.8,0,0,0,3.28-6.45,11.68,11.68,0,0,0,0-4.21,10.55,10.55,0,0,0-5.37-7.24,9.51,9.51,0,0,0-6.69-1.1,6.12,6.12,0,0,0-4.77,4.59S158.79,22.68,158.81,22.77Z"/><path class="cls-1" d="M161.08,31.91a16.74,16.74,0,0,1-2.54-3,10.05,10.05,0,0,1-1.64-5.06,6.94,6.94,0,0,1,2.86-6,12.83,12.83,0,0,1,7.42-2.73,14.64,14.64,0,0,1,5.73.67c.38.13.75.32,1.12.49s.53.28.79.4c.94.43,1.49.08,1.46-.94a2.3,2.3,0,0,0-.27-.95,5.4,5.4,0,0,0-2.2-2.09,12.48,12.48,0,0,0-6-1.59A13.53,13.53,0,0,0,158.68,14a10.75,10.75,0,0,0-4.15,7.65A10.33,10.33,0,0,0,155.69,28,8.06,8.06,0,0,0,161.08,31.91Z"/><path class="cls-1" d="M167.64,16.74l.46.15a14.86,14.86,0,0,1,7.51,5.17A11.1,11.1,0,0,1,178,28.35a18.15,18.15,0,0,1-1.69,9.12,30.3,30.3,0,0,1-1.68,2.7,9.83,9.83,0,0,0-.75,1.29.84.84,0,0,0,.44,1.13,1.81,1.81,0,0,0,1.49.12,5.66,5.66,0,0,0,2.35-1.49,10.62,10.62,0,0,0,2.46-3.77,16.52,16.52,0,0,0,1.13-9.68,13.57,13.57,0,0,0-9-10.55,11.67,11.67,0,0,0-4.66-.61l-.4.06Z"/><path class="cls-1" d="M139.46,42.55c.92.13,1.85.25,2.77.39a61.7,61.7,0,0,1,7.6,1.56,39.3,39.3,0,0,0,9.62,1.57,18.74,18.74,0,0,0,12.51-4,7.44,7.44,0,0,0,2.29-2.81,5,5,0,0,0,.31-1.33.7.7,0,0,0-.24-.51c-.07,0-.34.07-.46.17a29.33,29.33,0,0,1-4.12,2.89,17.92,17.92,0,0,1-7.26,2.23,55.29,55.29,0,0,1-10.37-.3c-1.93-.22-3.86-.53-5.8-.68a19.18,19.18,0,0,0-5.85.37c-.34.09-.67.23-1,.35Z"/><path class="cls-1" d="M159.64,33.17c-.47-.21-.94-.41-1.39-.64a9.82,9.82,0,0,1-5.15-6.74,12.6,12.6,0,0,1,.26-6.07c.24-1,.43-2.06.62-3.09a1.94,1.94,0,0,0,0-.72,1.09,1.09,0,0,0-1.75-.75,5.29,5.29,0,0,0-1.83,2.37,12.59,12.59,0,0,0-.09,9.48,9.22,9.22,0,0,0,4.05,5.14A8,8,0,0,0,159.64,33.17Z"/><path class="cls-1" d="M179.17,19.73c.65.88,1.25,1.67,1.83,2.47a12.17,12.17,0,0,1,2.36,5.85c.13,1.13.18,2.27.26,3.41.13,1.9.27,3.81.39,5.71,0,.35.17.44.5.36a2.27,2.27,0,0,0,1.58-1.4,11.91,11.91,0,0,0,.81-2.47,14,14,0,0,0-.13-5.95,10.48,10.48,0,0,0-4.42-6.18,32.11,32.11,0,0,0-2.85-1.66A2,2,0,0,0,179.17,19.73Z"/><path d="M14.12,33.63a10.16,10.16,0,0,1-4.5-.92A7.49,7.49,0,0,1,6.52,30,11.51,11.51,0,0,1,4.9,25.53,73.75,73.75,0,0,1,4,16.69c-.12-3-.2-5.93-.22-8.69L13,7c-.29,2-.56,4-.81,6.16s-.46,4.14-.62,6.08-.25,3.7-.3,5.26a12.22,12.22,0,0,0,.48,4A2.2,2.2,0,0,0,14.12,30l.72,1.8Z"/><path d="M14.11,33.63V30a3.05,3.05,0,0,0,1.79-.45,2.44,2.44,0,0,0,.9-1.24,5.58,5.58,0,0,0,.27-1.8,13.89,13.89,0,0,0-.38-3.06c-.25-1.1-.51-2.15-.78-3.13l9-2.16c.12.77.21,1.52.27,2.27s.1,1.46.1,2.16a14.55,14.55,0,0,1-1.1,5.9,7.84,7.84,0,0,1-3.55,3.8A13.87,13.87,0,0,1,14.11,33.63Zm6.77-16c-.69-.45-1.38-1-2.07-1.51a11.39,11.39,0,0,1-1.74-1.73l3.27-3.52a21.82,21.82,0,0,0,1.8,1.8,24.86,24.86,0,0,0,2.05,1.58Z"/><path d="M38.45,33.63a10.16,10.16,0,0,1-4.5-.92A7.53,7.53,0,0,1,30.86,30a11.2,11.2,0,0,1-1.62-4.45,73.73,73.73,0,0,1-.87-8.84q-.18-4.55-.22-8.69l9.22-1c-.29,2-.56,4-.81,6.16s-.46,4.14-.61,6.08-.26,3.7-.31,5.26a12.18,12.18,0,0,0,.49,4A2.19,2.19,0,0,0,38.45,30l.72,1.8Z"/><path d="M38.45,33.63V30a2.69,2.69,0,0,0,2.34-1.11c.53-.75.52-2,0-3.75l9.11-1.26a9.52,9.52,0,0,1-.63,4.7,6.91,6.91,0,0,1-2.46,3A10.69,10.69,0,0,1,43,33.16,20.93,20.93,0,0,1,38.45,33.63ZM43.13,22.8a22.38,22.38,0,0,1-2-1.44,12.58,12.58,0,0,1-1.68-1.66l3.14-3.35a18.24,18.24,0,0,0,1.69,1.71,14.64,14.64,0,0,0,2,1.5Zm4.5,0a22.38,22.38,0,0,1-2-1.44A12.58,12.58,0,0,1,44,19.7l3.14-3.35a18.24,18.24,0,0,0,1.69,1.71,14.64,14.64,0,0,0,2,1.5Zm4.5,10.83a6.7,6.7,0,0,1-3.31-.83,5.94,5.94,0,0,1-2.41-2.5,8.6,8.6,0,0,1-.9-4.12l3-.54a5,5,0,0,0,.61,2.72,3.35,3.35,0,0,0,1.46,1.31,3.93,3.93,0,0,0,1.53.36l.72,1.8Z"/><path d="M52.13,33.63V30a3,3,0,0,0,1.78-.45,2.44,2.44,0,0,0,.9-1.24,5.58,5.58,0,0,0,.27-1.8,13.32,13.32,0,0,0-.38-3.06c-.25-1.1-.51-2.15-.77-3.13l9-2.16c.12.77.21,1.52.27,2.27s.09,1.46.09,2.16a14.55,14.55,0,0,1-1.1,5.9,7.78,7.78,0,0,1-3.54,3.8A13.93,13.93,0,0,1,52.13,33.63Zm6.77-16a23.65,23.65,0,0,1-2.07-1.51,11,11,0,0,1-1.75-1.73l3.28-3.52a21.82,21.82,0,0,0,1.8,1.8,23.27,23.27,0,0,0,2.05,1.58Z"/><path d="M72.11,48,66,41.16q2.16-1.3,4.2-2.65a28.27,28.27,0,0,0,3.62-2.84,13.1,13.1,0,0,0,2.52-3.23,7.9,7.9,0,0,0,.93-3.81,2.56,2.56,0,0,0-.36-1.42,2.18,2.18,0,0,0-.93-.83,2.79,2.79,0,0,0-1.19-.27,2.92,2.92,0,0,0-1.6.5A1.56,1.56,0,0,0,72.36,28a1.4,1.4,0,0,0,.78,1.3,5.74,5.74,0,0,0,2,.59,17.42,17.42,0,0,0,2.41.16l-.4,3.75a16.47,16.47,0,0,1-5.92-1,9.33,9.33,0,0,1-4-2.68,5.88,5.88,0,0,1-1.42-3.87,6.91,6.91,0,0,1,1-3.6,6.74,6.74,0,0,1,2.65-2.48,8,8,0,0,1,3.82-.9A9.23,9.23,0,0,1,78,20.46a8.22,8.22,0,0,1,3.22,3.43,11.71,11.71,0,0,1,1.17,5.46,19,19,0,0,1-.86,5.81,21.71,21.71,0,0,1-2.34,5,30.81,30.81,0,0,1-3.3,4.26A42.53,42.53,0,0,1,72.11,48Zm8.21-14.4V30h1.92l1.93,0,.72,1.8-.72,1.8H82.24C81.61,33.63,81,33.63,80.32,33.63Z"/><path d="M98.17,34.68A16.31,16.31,0,0,1,94,34.17,21.88,21.88,0,0,1,90.54,33c-1-.47-1.91-.91-2.63-1.32l1.55-2.84c.51.17,1.11.36,1.82.57a6.65,6.65,0,0,0,2,.33,2.29,2.29,0,0,0,1.23-.31,1.19,1.19,0,0,0,.5-1.1,3.08,3.08,0,0,0-.4-1.44,4.56,4.56,0,0,0-1-1.29A1.88,1.88,0,0,0,92.34,25a1.51,1.51,0,0,0-1.19.5,3.89,3.89,0,0,0-.68,1.3,12,12,0,0,0-.41,1.67c-.11.59-.24,1.14-.38,1.64a4.07,4.07,0,0,1-2.09,2.77,7.87,7.87,0,0,1-3.42.72V30a1.72,1.72,0,0,0,1.17-.38,2.75,2.75,0,0,0,.74-1,8.58,8.58,0,0,0,.48-1.48c.13-.55.27-1.11.42-1.69A14.55,14.55,0,0,1,88.31,22a7.51,7.51,0,0,1,2.23-2.56,5.75,5.75,0,0,1,3.39-1,8.57,8.57,0,0,1,3.78.85,9.73,9.73,0,0,1,3.09,2.34,10.93,10.93,0,0,1,2.07,3.4,11.22,11.22,0,0,1,.74,4.07,6.21,6.21,0,0,1-.47,2.55,4.69,4.69,0,0,1-3,2.67A7,7,0,0,1,98.17,34.68Z"/><path d="M108.54,34.75q0-4-.12-7.27c-.09-2.19-.21-4.26-.37-6.23s-.36-4-.63-6-.57-4.2-.93-6.55l9.21-1.51a116.19,116.19,0,0,1-.57,13.84A94.46,94.46,0,0,1,113,33.45Z"/><path d="M118.62,51.27,112.1,44.4a27.42,27.42,0,0,0,3.82-2.92,13.62,13.62,0,0,0,2.39-3,24.18,24.18,0,0,0,1.79-3.8,6.85,6.85,0,0,1,1.67-2.64A6.42,6.42,0,0,1,124,30.68a10.14,10.14,0,0,1,2.52-.54c.85-.07,1.66-.11,2.43-.11l.72,1.8-.72,1.8a2.82,2.82,0,0,0-1.6.42,2.33,2.33,0,0,0-.92,1.11,5.39,5.39,0,0,0-.36,1.57,31.17,31.17,0,0,1-.38,3.13,21.68,21.68,0,0,1-1.06,3.89,15.93,15.93,0,0,1-2.21,4A14.69,14.69,0,0,1,118.62,51.27Z"/><path d="M129,33.63V30a3,3,0,0,0,1.78-.45,2.44,2.44,0,0,0,.9-1.24,5.58,5.58,0,0,0,.27-1.8,13.89,13.89,0,0,0-.38-3.06c-.25-1.1-.51-2.15-.77-3.13l9-2.16c.12.77.21,1.52.27,2.27s.09,1.46.09,2.16a14.55,14.55,0,0,1-1.1,5.9,7.78,7.78,0,0,1-3.54,3.8A13.93,13.93,0,0,1,129,33.63Zm3.92-16.13a20.06,20.06,0,0,1-2-1.44,12.43,12.43,0,0,1-1.67-1.65l3.13-3.35a21,21,0,0,0,1.69,1.71,16,16,0,0,0,2,1.49Zm4.5,0a20.06,20.06,0,0,1-2-1.44,12.43,12.43,0,0,1-1.67-1.65l3.13-3.35a21,21,0,0,0,1.69,1.71,16,16,0,0,0,2,1.49Z"/></g></svg>