<svg xmlns="http://www.w3.org/2000/svg" viewBox="0 0 192.5 51.35"><defs><style>.cls-1{fill:#c18b10;}.cls-2{fill:#fff;}</style></defs><g id="Blanc-_arabic" data-name="Blanc- arabic"><path class="cls-1" d="M160.29,22.77a12.58,12.58,0,0,1,3-1.76c4.53-2.05,9.19,1.64,9.48,5.76a8.5,8.5,0,0,1-4.85,8.69,19.58,19.58,0,0,1-6.68,1.65c-3.79.37-7.59.29-11.38.35a63,63,0,0,0-8,.52,16.86,16.86,0,0,0-5.87,1.86,10.42,10.42,0,0,0-4.33,4.51,4.4,4.4,0,0,0-.23,3.18l.15-.11a15.4,15.4,0,0,1,10.41-6.94,23.54,23.54,0,0,1,7-.27c3.25.29,6.51.6,9.77.76a28.17,28.17,0,0,0,9.79-1A13,13,0,0,0,173.78,37a10.86,10.86,0,0,0,3.28-6.45,11.91,11.91,0,0,0,0-4.21,10.58,10.58,0,0,0-5.37-7.24A9.52,9.52,0,0,0,165,18a6.12,6.12,0,0,0-4.77,4.59S160.27,22.68,160.29,22.77Z"/><path class="cls-1" d="M162.56,31.91a16.79,16.79,0,0,1-2.55-3,10.14,10.14,0,0,1-1.63-5.06,6.94,6.94,0,0,1,2.85-6,12.89,12.89,0,0,1,7.43-2.73,14.64,14.64,0,0,1,5.73.67c.38.13.75.32,1.12.49s.52.28.79.4c.94.43,1.49.08,1.46-.94a2.3,2.3,0,0,0-.27-.95,5.4,5.4,0,0,0-2.2-2.09,12.48,12.48,0,0,0-6-1.59A13.53,13.53,0,0,0,160.16,14,10.8,10.8,0,0,0,156,21.61,10.33,10.33,0,0,0,157.16,28,8.11,8.11,0,0,0,162.56,31.91Z"/><path class="cls-1" d="M169.12,16.74l.46.15a14.86,14.86,0,0,1,7.51,5.17,11.1,11.1,0,0,1,2.35,6.29,18.15,18.15,0,0,1-1.69,9.12,30.41,30.41,0,0,1-1.69,2.7,9.76,9.76,0,0,0-.74,1.29.84.84,0,0,0,.44,1.13,1.81,1.81,0,0,0,1.49.12,5.72,5.72,0,0,0,2.35-1.49,10.62,10.62,0,0,0,2.46-3.77,16.52,16.52,0,0,0,1.13-9.68,13.57,13.57,0,0,0-9-10.55,11.69,11.69,0,0,0-4.66-.61l-.4.06Z"/><path class="cls-1" d="M140.94,42.55c.92.13,1.85.25,2.77.39a61.7,61.7,0,0,1,7.6,1.56,39.3,39.3,0,0,0,9.62,1.57,18.76,18.76,0,0,0,12.51-4,7.41,7.41,0,0,0,2.28-2.81,5,5,0,0,0,.32-1.33.68.68,0,0,0-.25-.51c-.06,0-.33.07-.45.17a29.33,29.33,0,0,1-4.12,2.89A17.92,17.92,0,0,1,164,42.69a55.21,55.21,0,0,1-10.36-.3c-1.93-.22-3.86-.53-5.8-.68a19.18,19.18,0,0,0-5.85.37c-.34.09-.67.23-1,.35Z"/><path class="cls-1" d="M161.11,33.17c-.46-.21-.93-.41-1.39-.64a9.81,9.81,0,0,1-5.14-6.74,12.73,12.73,0,0,1,.25-6.07c.24-1,.44-2.06.63-3.09a2.18,2.18,0,0,0,0-.72,1.09,1.09,0,0,0-1.75-.75,5.29,5.29,0,0,0-1.83,2.37,12.59,12.59,0,0,0-.09,9.48,9.22,9.22,0,0,0,4.05,5.14A8,8,0,0,0,161.11,33.17Z"/><path class="cls-1" d="M180.64,19.73c.66.88,1.26,1.67,1.84,2.47a12.27,12.27,0,0,1,2.36,5.85c.13,1.13.18,2.27.26,3.41.13,1.9.27,3.81.39,5.71,0,.35.17.44.49.36a2.24,2.24,0,0,0,1.58-1.4,11.37,11.37,0,0,0,.82-2.47,14,14,0,0,0-.13-5.95,10.48,10.48,0,0,0-4.42-6.18c-.9-.63-1.9-1.12-2.85-1.66A1.84,1.84,0,0,0,180.64,19.73Z"/><path class="cls-2" d="M15.59,33.63a10.22,10.22,0,0,1-4.5-.92A7.53,7.53,0,0,1,8,30a11.51,11.51,0,0,1-1.62-4.45,73.73,73.73,0,0,1-.87-8.84Q5.33,12.15,5.3,8l9.21-1c-.28,2-.55,4-.81,6.16s-.45,4.14-.61,6.08-.26,3.7-.3,5.26a12,12,0,0,0,.48,4A2.19,2.19,0,0,0,15.59,30l.72,1.8Z"/><path class="cls-2" d="M15.59,33.63V30a3.05,3.05,0,0,0,1.79-.45,2.49,2.49,0,0,0,.9-1.24,5.58,5.58,0,0,0,.27-1.8,13.89,13.89,0,0,0-.38-3.06c-.25-1.1-.51-2.15-.78-3.13l9-2.16c.12.77.21,1.52.27,2.27s.09,1.46.09,2.16a14.55,14.55,0,0,1-1.09,5.9,7.84,7.84,0,0,1-3.55,3.8A13.9,13.9,0,0,1,15.59,33.63Zm6.77-16a25.26,25.26,0,0,1-2.07-1.51,11,11,0,0,1-1.74-1.73l3.27-3.52a21.82,21.82,0,0,0,1.8,1.8,23.27,23.27,0,0,0,2.05,1.58Z"/><path class="cls-2" d="M39.93,33.63a10.16,10.16,0,0,1-4.5-.92A7.62,7.62,0,0,1,32.33,30a11.51,11.51,0,0,1-1.62-4.45,75.86,75.86,0,0,1-.86-8.84q-.18-4.55-.22-8.69l9.22-1c-.29,2-.56,4-.81,6.16s-.46,4.14-.61,6.08-.26,3.7-.31,5.26a12.18,12.18,0,0,0,.49,4A2.19,2.19,0,0,0,39.93,30l.72,1.8Z"/><path class="cls-2" d="M39.93,33.63V30a2.69,2.69,0,0,0,2.34-1.11c.53-.75.51-2,0-3.75l9.11-1.26a9.76,9.76,0,0,1-.63,4.7,6.93,6.93,0,0,1-2.47,3,10.69,10.69,0,0,1-3.78,1.56A20.83,20.83,0,0,1,39.93,33.63ZM44.61,22.8a22.38,22.38,0,0,1-2-1.44A12.58,12.58,0,0,1,41,19.7l3.13-3.35a19.63,19.63,0,0,0,1.7,1.71,14.64,14.64,0,0,0,2,1.5Zm4.5,0a22.38,22.38,0,0,1-2-1.44,12.58,12.58,0,0,1-1.68-1.66l3.13-3.35a19.63,19.63,0,0,0,1.7,1.71,14.64,14.64,0,0,0,2,1.5Zm4.5,10.83a6.67,6.67,0,0,1-3.31-.83,6,6,0,0,1-2.42-2.5,8.6,8.6,0,0,1-.9-4.12l3-.54a5,5,0,0,0,.61,2.72,3.3,3.3,0,0,0,1.46,1.31,3.93,3.93,0,0,0,1.53.36l.72,1.8Z"/><path class="cls-2" d="M53.61,33.63V30a3,3,0,0,0,1.78-.45,2.44,2.44,0,0,0,.9-1.24,5.58,5.58,0,0,0,.27-1.8,13.89,13.89,0,0,0-.38-3.06c-.25-1.1-.51-2.15-.77-3.13l9-2.16c.12.77.21,1.52.27,2.27s.09,1.46.09,2.16a14.55,14.55,0,0,1-1.1,5.9,7.75,7.75,0,0,1-3.55,3.8A13.85,13.85,0,0,1,53.61,33.63Zm6.77-16a23.65,23.65,0,0,1-2.07-1.51,11,11,0,0,1-1.75-1.73l3.28-3.52a21.82,21.82,0,0,0,1.8,1.8,23.27,23.27,0,0,0,2,1.58Z"/><path class="cls-2" d="M73.59,48l-6.16-6.87q2.16-1.3,4.2-2.65a27.47,27.47,0,0,0,3.61-2.84,12.64,12.64,0,0,0,2.52-3.23,7.79,7.79,0,0,0,.94-3.81,2.56,2.56,0,0,0-.36-1.42,2.15,2.15,0,0,0-.94-.83,2.75,2.75,0,0,0-1.18-.27,3,3,0,0,0-1.61.5A1.57,1.57,0,0,0,73.84,28a1.41,1.41,0,0,0,.77,1.3,5.81,5.81,0,0,0,2,.59A17.42,17.42,0,0,0,79,30l-.4,3.75a16.47,16.47,0,0,1-5.92-1,9.33,9.33,0,0,1-4-2.68,5.88,5.88,0,0,1-1.42-3.87,6.91,6.91,0,0,1,.95-3.6,6.74,6.74,0,0,1,2.65-2.48,8,8,0,0,1,3.81-.9,9.27,9.27,0,0,1,4.76,1.19,8.29,8.29,0,0,1,3.22,3.43,11.71,11.71,0,0,1,1.17,5.46A18.72,18.72,0,0,1,83,35.16a20.91,20.91,0,0,1-2.34,5,30,30,0,0,1-3.29,4.26A44,44,0,0,1,73.59,48Zm8.21-14.4V30h1.92l1.93,0,.72,1.8-.72,1.8H83.72C83.09,33.63,82.44,33.63,81.8,33.63Z"/><path class="cls-2" d="M99.65,34.68a16.31,16.31,0,0,1-4.14-.51A21.88,21.88,0,0,1,92,33c-1-.47-1.91-.91-2.63-1.32l1.55-2.84c.5.17,1.11.36,1.82.57a6.59,6.59,0,0,0,2,.33,2.23,2.23,0,0,0,1.22-.31,1.17,1.17,0,0,0,.51-1.1,3.08,3.08,0,0,0-.4-1.44,4.42,4.42,0,0,0-1-1.29A1.83,1.83,0,0,0,93.82,25a1.51,1.51,0,0,0-1.19.5,3.72,3.72,0,0,0-.68,1.3,13.58,13.58,0,0,0-.42,1.67,16,16,0,0,1-.37,1.64,4.07,4.07,0,0,1-2.09,2.77,7.87,7.87,0,0,1-3.42.72V30a1.72,1.72,0,0,0,1.17-.38,2.86,2.86,0,0,0,.74-1A8.58,8.58,0,0,0,88,27.15c.13-.55.27-1.11.42-1.69A14.55,14.55,0,0,1,89.79,22,7.41,7.41,0,0,1,92,19.48a5.74,5.74,0,0,1,3.38-1,8.51,8.51,0,0,1,3.78.85,9.66,9.66,0,0,1,3.1,2.34,10.93,10.93,0,0,1,2.07,3.4,11.22,11.22,0,0,1,.74,4.07,6.21,6.21,0,0,1-.47,2.55,4.78,4.78,0,0,1-1.24,1.71,4.63,4.63,0,0,1-1.75,1A7,7,0,0,1,99.65,34.68Z"/><path class="cls-2" d="M110,34.75q0-4-.13-7.27c-.08-2.19-.2-4.26-.36-6.23s-.36-4-.63-6-.57-4.2-.93-6.55l9.21-1.51a118.34,118.34,0,0,1-.57,13.84,92.8,92.8,0,0,1-2.13,12.4Z"/><path class="cls-2" d="M120.1,51.27l-6.52-6.87a27.42,27.42,0,0,0,3.82-2.92,13.62,13.62,0,0,0,2.39-3,24.18,24.18,0,0,0,1.79-3.8,6.85,6.85,0,0,1,1.67-2.64,6.34,6.34,0,0,1,2.27-1.39,10,10,0,0,1,2.52-.54c.85-.07,1.66-.11,2.43-.11l.72,1.8-.72,1.8a2.82,2.82,0,0,0-1.6.42,2.33,2.33,0,0,0-.92,1.11,4.82,4.82,0,0,0-.36,1.57,31.17,31.17,0,0,1-.38,3.13,22.55,22.55,0,0,1-1.06,3.89,16,16,0,0,1-2.22,4A14.64,14.64,0,0,1,120.1,51.27Z"/><path class="cls-2" d="M130.47,33.63V30a3,3,0,0,0,1.78-.45,2.44,2.44,0,0,0,.9-1.24,5.58,5.58,0,0,0,.27-1.8,13.89,13.89,0,0,0-.38-3.06c-.25-1.1-.51-2.15-.77-3.13l9-2.16c.12.77.21,1.52.27,2.27s.09,1.46.09,2.16a14.55,14.55,0,0,1-1.1,5.9,7.75,7.75,0,0,1-3.55,3.8A13.85,13.85,0,0,1,130.47,33.63Zm3.92-16.13a18.93,18.93,0,0,1-2-1.44,12.53,12.53,0,0,1-1.68-1.65l3.14-3.35a21,21,0,0,0,1.69,1.71,15.26,15.26,0,0,0,2,1.49Zm4.5,0a18.93,18.93,0,0,1-2-1.44,12.53,12.53,0,0,1-1.68-1.65l3.14-3.35a21,21,0,0,0,1.69,1.71,15.26,15.26,0,0,0,2,1.49Z"/></g></svg>