<?xml version="1.0" encoding="utf-8"?>
<!-- Generator: Adobe Illustrator 24.1.2, SVG Export Plug-In . SVG Version: 6.00 Build 0)  -->
<svg version="1.1" xmlns="http://www.w3.org/2000/svg" xmlns:xlink="http://www.w3.org/1999/xlink" x="0px" y="0px"
	 viewBox="0 0 238.4 51.4" style="enable-background:new 0 0 238.4 51.4;" xml:space="preserve">
<style type="text/css">
	.st0{fill:#f0bd05;}
	.st1{display:none;}
	.st2{fill:#FFFFFF;}
</style>
<g id="Noir">
</g>
<g id="Blanc">
	<rect class="st1" width="238.4" height="51.4"/>
	<g>
		<g>
			<path class="st0" d="M31.9,23.7c-0.9-0.8-1.9-1.3-3-1.8c-4.5-2.1-9.2,1.6-9.5,5.8c-0.2,3.4,1.1,6.9,4.9,8.7
				c2.1,1,4.4,1.4,6.7,1.7c3.8,0.4,7.6,0.3,11.4,0.3c2.7,0,5.4,0.1,8,0.5c2.1,0.3,4,0.8,5.9,1.9c1.9,1.1,3.3,2.6,4.3,4.5
				c0.5,1,0.5,2.1,0.2,3.2c-0.1-0.1-0.1-0.1-0.1-0.1c-2.4-3.9-6-6-10.4-6.9c-2.3-0.5-4.7-0.5-7-0.3c-3.3,0.3-6.5,0.6-9.8,0.8
				c-3.3,0.2-6.6,0-9.8-1c-2-0.6-3.8-1.5-5.3-2.9c-1.9-1.8-2.9-3.9-3.3-6.5c-0.2-1.4-0.3-2.8,0-4.2c0.7-3.2,2.5-5.6,5.4-7.2
				c2.1-1.2,4.3-1.5,6.7-1.1c2.4,0.5,4.1,2.2,4.8,4.6C32,23.6,32,23.6,31.9,23.7z"/>
			<path class="st0" d="M29.7,32.8c1-0.9,1.8-1.9,2.5-3c1-1.5,1.6-3.2,1.6-5.1c0.1-2.5-0.9-4.5-2.9-6c-2.2-1.7-4.7-2.6-7.4-2.7
				c-1.9-0.1-3.9,0-5.7,0.7c-0.4,0.1-0.8,0.3-1.1,0.5c-0.3,0.1-0.5,0.3-0.8,0.4c-0.9,0.4-1.5,0.1-1.5-0.9c0-0.3,0.1-0.7,0.3-0.9
				c0.5-0.9,1.3-1.6,2.2-2.1c1.8-1.1,3.9-1.5,6-1.6c3.4-0.1,6.5,0.7,9.1,2.8c2.5,1.9,3.8,4.5,4.2,7.6c0.2,2.3,0,4.4-1.2,6.4
				C33.9,31.1,32,32.3,29.7,32.8z"/>
			<path class="st0" d="M23.1,17.7c-0.2,0-0.3,0.1-0.5,0.1c-3,0.9-5.6,2.7-7.5,5.2c-1.4,1.8-2.2,4-2.3,6.3c-0.2,3.2,0.3,6.2,1.7,9.1
				c0.5,0.9,1.1,1.8,1.7,2.7c0.3,0.4,0.5,0.8,0.7,1.3c0.2,0.5,0,0.9-0.4,1.1c-0.5,0.3-1,0.3-1.5,0.1c-0.9-0.3-1.7-0.8-2.3-1.5
				c-1.1-1.1-1.9-2.4-2.5-3.8C8.9,35.3,8.3,32,9,28.7c1.1-5.1,4-8.7,9-10.6c1.5-0.6,3.1-0.7,4.7-0.6C22.8,17.5,23,17.6,23.1,17.7
				C23.1,17.6,23.1,17.6,23.1,17.7z"/>
			<path class="st0" d="M51.3,43.5c-0.9,0.1-1.8,0.3-2.8,0.4c-2.6,0.4-5.1,0.9-7.6,1.6c-3.1,0.9-6.3,1.5-9.6,1.6
				c-4.6,0.1-8.9-1.1-12.5-4c-1-0.8-1.8-1.7-2.3-2.8c-0.2-0.4-0.3-0.9-0.3-1.3c0-0.2,0.1-0.4,0.2-0.5c0.1-0.1,0.3,0.1,0.5,0.2
				c1.3,1,2.6,2.1,4.1,2.9c2.3,1.2,4.7,2,7.3,2.2c3.5,0.3,6.9,0.1,10.4-0.3c1.9-0.2,3.9-0.5,5.8-0.7c2-0.1,3.9-0.1,5.8,0.4
				c0.3,0.1,0.7,0.2,1,0.3C51.3,43.4,51.3,43.4,51.3,43.5z"/>
			<path class="st0" d="M31.1,34.1c0.5-0.2,0.9-0.4,1.4-0.6c2.8-1.4,4.4-3.7,5.1-6.7c0.5-2.1,0.2-4.1-0.3-6.1
				c-0.2-1-0.4-2.1-0.6-3.1c0-0.2,0-0.5,0-0.7c0.2-0.9,1-1.2,1.7-0.8c0.9,0.6,1.4,1.4,1.8,2.4c1.4,3.1,1.2,6.3,0.1,9.5
				c-0.8,2.2-2.1,3.9-4.1,5.1C34.8,34.1,33,34.3,31.1,34.1z"/>
			<path class="st0" d="M11.6,20.7c-0.7,0.9-1.3,1.7-1.8,2.5c-1.3,1.8-2.1,3.7-2.4,5.9c-0.1,1.1-0.2,2.3-0.3,3.4
				c-0.1,1.9-0.3,3.8-0.4,5.7c0,0.4-0.2,0.4-0.5,0.4c-0.8-0.2-1.3-0.7-1.6-1.4c-0.3-0.8-0.7-1.6-0.8-2.5c-0.4-2-0.3-4,0.1-6
				C4.6,26,6.2,24,8.4,22.5c0.9-0.6,1.9-1.1,2.8-1.7C11.3,20.7,11.4,20.7,11.6,20.7z"/>
		</g>
		<g>
			<path class="st2" d="M194.8,37.6c0.7-0.3,1.4-0.6,2-1.1c1.3-1.2,2.5-2.5,3.5-4c1.6-2.3,2.7-4.9,3.9-7.4c0.2-0.3,0.5-0.4,0.8-0.4
				c0.6,0,1.1,0.2,1.5,0.6c0.5,0.4,1,1,1.1,1.8c0.5-0.3,0.9-0.6,1.4-0.9c0.9-0.7,2-1.1,3.1-1.3c0.8-0.2,1.6,0.2,2.1,0.9
				c0.5,0.9,0.6,1.7,0.1,2.6c-0.8,1.5-1.6,3-2.4,4.4c-0.5,0.9-1,1.9-1.4,2.8c-0.3,0.6-0.4,1.3-0.6,2c0.3-0.2,0.6-0.4,0.9-0.6
				c1.4-0.8,2.6-1.9,3.6-3.2c0.7-0.8,1.1-1.8,1.7-2.6c0.9-1.3,2-2.5,3.1-3.6c0.8-0.8,1.7-1.4,2.7-1.9c1.6-0.9,3.4-1.4,5.3-0.9
				c1.1,0.3,1.7,1.1,1.9,2.2c0.1,0.5,0.1,1,0,1.5c-0.1,0.5-0.5,0.7-0.9,0.7c-0.6,0-0.9-0.1-1-0.5c0-0.1-0.1-0.2-0.1-0.4
				c0-1-0.7-1.4-1.6-1.2c-1.6,0.4-2.7,1.5-3.7,2.7c-0.7,0.9-1.5,1.9-2.1,2.9c-0.6,1-1.2,2.1-1.3,3.4c0,0.3,0,0.5,0.1,0.8
				c0.1,0.3,0.5,0.5,0.9,0.4c0.8-0.2,1.5-0.7,2.1-1.3c0.5-0.5,1-0.9,1.5-1.4c0.6-0.6,1.2-1.3,1.7-2c0.4-0.5,0.5-1.1,0.8-1.7
				c0.1-0.3,0.2-0.7,0.3-1c0.2-0.6,0.6-0.8,1.2-0.7c1.2,0.2,2.4,1.6,2.3,2.7c0,0.3-0.1,0.6-0.2,0.8c-0.5,0.9-1,1.8-1.4,2.7
				c-0.3,0.7-0.6,1.5-0.9,2.3c0.7-0.1,1.3-0.4,1.7-0.9c0.7-0.7,1.4-1.4,2.1-2.1c1-1.1,1.8-2.3,2.7-3.5c0.4-0.5,1.1-0.6,1.5-0.1
				c0.2,0.3,0.3,0.9,0.1,1.2c-1.2,1.6-2.5,3.2-3.7,4.7c-1,1.2-2.2,2.2-3.6,3c-1.1,0.6-2.3,0.8-3.5,0.4c-0.9-0.3-1.5-1.3-1.6-2.3
				c0-0.1,0-0.1,0-0.2c-0.5,0.4-0.9,0.8-1.3,1.1c-0.8,0.6-1.6,1.2-2.5,1.4c-1.1,0.3-2.2,0.2-3.2-0.5c-0.9-0.6-1.3-1.5-1.3-2.6
				c-0.2,0.2-0.4,0.3-0.5,0.5c-0.8,0.8-1.6,1.5-2.5,2.1c-0.8,0.5-1.7,0.8-2.6,0.7c-0.6,0-1.1-0.2-1.5-0.5c-0.5-0.4-0.8-1-0.8-1.7
				c-0.1-1.2,0.2-2.3,0.6-3.4c0.4-1.2,1.1-2.3,1.6-3.4c0.4-0.8,0.9-1.7,1.3-2.5c0.1-0.2,0.2-0.5,0.3-0.7c0,0-0.1-0.1-0.1-0.1
				c-0.5,0.4-1,0.7-1.5,1.1c-1.3,1.2-2.5,2.3-3.7,3.5c-0.3,0.3-0.5,0.7-0.7,1.1c-0.5,1-0.9,1.9-1.3,2.9c-0.3,0.9-0.6,1.8-0.8,2.8
				c-0.2,0.7-0.7,1-1.4,0.7c-0.4-0.2-0.8-0.5-1.2-0.8c-0.5-0.3-0.6-0.8-0.4-1.4c0.1-0.2,0.1-0.4,0.1-0.7c-0.6,0.5-1,1-1.5,1.4
				c-1,0.8-2.1,1.6-3.5,1.7c-1.5,0.1-2.5-0.3-3-1.7c-0.1-0.3-0.1-0.7-0.2-1c-0.4,0.3-0.7,0.6-1.1,0.9c-0.9,0.7-1.9,1.4-3,1.6
				c-1.5,0.4-3.3-0.4-4-1.8c-0.2-0.4-0.3-0.8-0.4-1.3c-0.3,0.3-0.6,0.6-0.9,0.9c-0.8,0.6-1.6,1.3-2.5,1.8c-0.9,0.5-2,0.8-3.1,0.4
				c-1-0.3-1.3-1.1-1.4-1.8c0-0.4,0-0.8,0-1.3c-0.2,0.2-0.4,0.4-0.6,0.6c-0.8,0.6-1.5,1.2-2.3,1.8c-0.8,0.6-1.7,0.9-2.7,0.8
				c-0.7,0-1.5-0.3-1.9-0.9c-0.4-0.6-0.6-1.3-0.6-2c0.1-1.1,0.4-2.2,0.9-3.3c0.9-1.8,1.9-3.6,2.8-5.5c0.1-0.2,0.1-0.4,0.2-0.6
				c-0.3,0.2-0.6,0.3-0.9,0.6c-1.6,1.2-3,2.5-4.4,4c-0.4,0.5-0.7,1.1-1,1.7c-0.6,1.3-1.2,2.6-1.5,4c-0.1,0.4-0.1,0.7-0.2,1.1
				c-0.1,0.6-0.5,0.9-1.1,0.7c-0.8-0.2-1.4-0.6-1.8-1.3c-0.1-0.2-0.2-0.4-0.2-0.6c0.4-1.5,0.8-3,1.4-4.4c0.9-2.2,2.1-4.3,3.1-6.5
				c0.4-0.8,0.7-1.5,1.1-2.3c0.3-0.5,0.7-0.7,1.2-0.6c1,0.3,1.7,0.9,2.1,1.9c0,0.1,0.1,0.2,0.1,0.4c0.6-0.4,1.3-0.9,1.9-1.3
				c0.8-0.5,1.8-0.8,2.7-0.9c0.8-0.1,1.4,0.3,1.9,1c0.3,0.4,0.5,0.8,0.5,1.4c0,0.5-0.3,0.9-0.5,1.3c-0.5,1.1-1.1,2.1-1.7,3.1
				c-0.7,1.3-1.4,2.6-2.1,4c-0.3,0.6-0.5,1.3-0.7,2c0,0,0.1,0.1,0.1,0.1c0.4-0.2,0.8-0.4,1.1-0.7c1.5-1,2.7-2.2,3.8-3.6
				c0.9-1.1,1.6-2.4,2.3-3.6c0.7-1.2,1.5-2.4,2.2-3.6c0.2-0.3,0.4-0.7,0.6-1c0,0,0-0.1-0.1-0.1c-0.5,0.3-1.1,0.5-1.6,0.8
				c-0.6,0.3-1.3,0.1-1.5-0.6c-0.1-0.4,0.2-0.9,0.7-1.1c1.3-0.8,2.7-1.5,4.1-2c0.5-0.2,0.6-0.7,0.9-1.1c0.3-0.5,0.6-1,0.9-1.6
				c0.5-1,1-2,1.4-3.1c0.2-0.4,0.5-0.6,1-0.6c1.1,0.1,2.7,1.2,2.5,2.7c-0.1,0.6-0.5,1.1-0.7,1.7c0,0.1-0.1,0.1-0.1,0.2
				c0.9-0.1,1.7-0.2,2.6-0.3c0.9,0,1.8,0,2.6,0c0.3,1,0,1.9-0.8,2.5c-0.2,0.2-0.6,0.2-0.9,0.2c-1.2,0.1-2.5,0.1-3.7,0.1
				c-0.5,0-1,0.1-1.5,0.2c-0.1,0-0.2,0.1-0.3,0.2c-0.9,1.5-1.8,2.9-2.7,4.4c-0.9,1.4-1.7,2.8-2.6,4.2c-0.4,0.7-0.9,1.5-1.2,2.3
				c-0.4,0.9-0.8,1.9-1.2,2.9c-0.1,0.2,0,0.3-0.1,0.6c0.4-0.2,0.7-0.3,1-0.5c1.3-0.8,2.3-1.9,3.3-3.1c0.8-1,1.4-2.1,2.1-3.2
				c0.9-1.3,2-2.6,3.3-3.6c0.8-0.6,1.6-1.3,2.5-1.8c1.6-0.8,3.3-1.3,5.1-0.8c1.2,0.3,1.9,1.2,2,2.4c0,0.3,0.1,0.7,0,1
				c-0.2,0.7-1.2,1.1-1.8,0.6c-0.2-0.1-0.3-0.4-0.3-0.7c-0.2-1.1-0.6-1.4-1.7-1.1c-1.1,0.3-2.1,1-2.8,1.8c-0.8,0.9-1.6,1.8-2.3,2.8
				c-0.8,1.2-1.5,2.4-1.8,3.8c-0.1,0.4-0.3,0.9,0,1.4c0.2,0.4,0.6,0.5,1.2,0.2c0.6-0.3,1.1-0.6,1.6-1c0.9-0.9,1.8-1.8,2.7-2.8
				c0.8-0.9,1.3-1.9,1.6-3.1c0.1-0.3,0.1-0.6,0.3-0.8c0.2-0.2,0.5-0.3,0.8-0.3c1.2,0.1,2,0.8,2.4,1.9c0.2,0.6,0.1,1.2-0.2,1.8
				c-0.6,1-1.1,2.1-1.6,3.1c-0.3,0.5-0.4,1.1-0.6,1.6C194.7,37.6,194.7,37.6,194.8,37.6z"/>
			<path class="st2" d="M108.7,7.8c1,0.1,1.9,0.3,2.9,0.4c0.7,0.1,1.4,0.2,2.1,0.2c0.9,0,1.7,0.1,2.6,0c0.9-0.1,1.9-0.2,2.8-0.4
				c1.4-0.4,2.6-1,3.7-1.9c0.4-0.3,0.9-0.7,1.4-1c0.3-0.2,0.6-0.1,0.8,0.1c0.3,0.2,0.4,0.5,0.3,0.9c0,0.2-0.1,0.3-0.2,0.4
				c-1.1,1.2-2.5,2.3-3.9,3.2c-1.1,0.8-2.3,1.4-3.6,1.8c-1.2,0.4-2.5,0.6-3.7,0.7c-2.4,0.3-4.7,0-7.1-0.4c-0.8-0.1-1.5-0.3-2.3-0.4
				c-0.1,0-0.2,0-0.3,0.1c-0.6,0.7-1.3,1.5-1.9,2.2c-0.5,0.5-0.9,1.1-1.3,1.7c-0.9,1.2-1.8,2.4-2.7,3.6C97.6,20,97,21,96.4,22
				c-1,1.6-2,3.2-3.1,4.8c-0.8,1.2-1.6,2.4-2.4,3.5c-1.1,1.4-2.2,2.9-3.4,4.2c-1.1,1.3-2.4,2.5-3.6,3.8c-1.5,1.5-3.1,2.7-4.8,3.9
				c-2.1,1.4-4.4,2.4-6.9,2.9c-0.9,0.2-1.8,0.2-2.8,0.1c-1.4-0.1-2.6-0.5-3.8-1.2c-1.6-0.9-2.6-2.3-3-4.1c-0.2-0.7-0.5-1-1.1-1.3
				c-1.6-0.8-3-2-3.9-3.6c-0.5-0.9-0.7-1.8-0.8-2.8c-0.1-0.6-0.1-1.2-0.1-1.8c0-0.6,0.1-1.2,0.3-1.8c0.3-1,0.5-2.1,0.9-3
				c0.5-1,1.2-2,1.9-3c0.9-1.1,2-2.1,3.2-2.9c1.5-1,3.1-1.8,4.8-2.2c0.7-0.2,1.4-0.3,2.1-0.3c1.3-0.1,2.5,0,3.8,0.3
				c0.3,0.1,0.6-0.2,0.9-0.3c1.2-0.5,2.3-1,3.6-1.3c0.1,0,0.3-0.2,0.3-0.3c0.6-1.9,1.7-3.5,3.1-4.8c0.9-0.8,1.8-1.5,2.9-2
				C86.3,8,88.1,7.4,90,7c1.3-0.2,2.6-0.3,3.9-0.4c1.6-0.1,3.2-0.1,4.8-0.1c1.8,0.1,3.6,0.3,5.4,0.5c0.1,0,0.3,0,0.4-0.1
				c1.2-0.8,2.5-1.3,3.8-1.7c0.9-0.3,1.8-0.5,2.8-0.5c0.5,0,0.9,0,1.4,0.1c0.4,0.1,0.5,0.4,0.5,0.8c0,0.4-0.3,0.8-0.6,0.8
				c-1,0.1-2,0.3-2.9,0.8c-0.3,0.2-0.5,0.3-0.8,0.4C108.7,7.7,108.7,7.7,108.7,7.8z M65.1,37.5c0.4,0,0.7,0.1,1,0.1
				c1.3,0.1,2.6-0.2,3.9-0.5c1.4-0.4,2.6-1,3.8-1.7c2.4-1.5,4.5-3.3,6.4-5.4c1-1.1,1.8-2.4,2.6-3.7c0.3-0.6,0.6-1.2,0.9-1.9
				c-1.6,0-2.8-0.5-3.9-1.4c0,0.9,0.1,1.7,0,2.6c-0.1,1.2-0.4,2.4-1,3.4c-0.4,0.7-0.9,1.4-1.5,2c-0.9,1.1-2.1,1.8-3.5,2.3
				c-1.3,0.5-2.6,0.6-3.8-0.1c-0.5-0.3-0.9-0.6-1-1.2c-0.1-0.6,0.2-1.1,0.7-1.3c0.3-0.1,0.7,0.2,1,0.6c0.1,0.2,0.3,0.3,0.5,0.4
				c0.6,0.2,1.2,0,1.7-0.3c1.6-0.8,2.8-2,3.5-3.7c0.6-1.5,0.7-3.1,0.3-4.6c-0.2-0.7-0.6-1.3-1.2-1.8c-0.1,0.1-0.2,0.2-0.3,0.2
				c-0.7,0.6-1.4,1.2-2,1.9c-1.5,1.4-2.8,3-3.9,4.6c-0.7,1-1.3,2.1-1.9,3.2c-0.4,0.7-0.8,1.5-1.1,2.3C65.7,34.6,65.2,36,65.1,37.5z
				 M86.5,21.6c0.1,0,0.2,0,0.4-0.1c1.4-0.5,2.6-1.3,3.5-2.5c0.7-0.9,1.1-1.9,1-3.1c0-0.7-0.4-1.1-1.1-1.2c-0.3,0-0.6-0.1-0.9-0.1
				c-0.5,0-0.7-0.2-0.8-0.7c-0.1-0.5,0.1-0.8,0.6-1c0.7-0.2,1.4-0.2,2.1-0.1c0.8,0.2,1.4,0.5,1.9,1.1c0.6,0.9,0.8,2,0.6,3.1
				c-0.1,0.4-0.1,0.7-0.2,1.1c1.1-1.3,2.1-2.7,3.2-4c1.1-1.3,2.2-2.5,3.4-3.8c-0.2,0-0.5-0.1-0.8-0.1c-1.8-0.4-3.7-0.7-5.6-0.8
				c-2.1-0.1-4.1,0.1-6.1,0.8c-2.2,0.7-4.1,1.8-5.5,3.7c-0.5,0.6-0.8,1.3-1,2C84,16.3,86.3,18.2,86.5,21.6z M91,21.8
				c-1.4,1.1-2.9,1.8-4.6,2.3c-0.1,0-0.2,0.2-0.3,0.3c-0.2,0.6-0.4,1.2-0.7,1.8c-1,2.1-2.3,4.1-3.9,5.8c-1.5,1.7-3.2,3.3-5.1,4.5
				c-1.7,1.1-3.5,2.1-5.5,2.7c-1.6,0.5-3.3,0.7-4.9,0.7c-0.2,0-0.5,0-0.8-0.1c0.2,0.8,0.8,1.6,1.4,2c1.6,1.2,3.4,1.4,5.2,0.9
				c2.4-0.6,4.4-2,6.3-3.7c1.2-1.1,2.4-2.3,3.4-3.5c1.4-1.7,2.7-3.4,3.9-5.2c0.9-1.2,1.6-2.5,2.5-3.7c0.5-0.8,1-1.6,1.6-2.5
				C90,23.4,90.5,22.6,91,21.8z M71.4,19.7c-0.5,0-1.1,0-1.6,0c-0.4,0-0.9,0.1-1.3,0.2c-2.1,0.5-4,1.5-5.6,3.1
				c-1.7,1.7-2.9,3.7-3.3,6.1c-0.1,0.5-0.2,1.1-0.2,1.6c0,0.5,0.1,1,0.2,1.6c0.1,1.1,0.5,2.1,1.3,2.9c0.4,0.5,0.8,0.9,1.3,1.3
				C63.3,29.6,66.7,24.3,71.4,19.7z M84.1,21.9c-0.1-0.5-0.2-0.9-0.3-1.4c-0.2-1.2-1.6-2.1-2.8-2c-0.2,0-0.3,0.1-0.3,0.3
				C81.1,20.5,82.2,21.6,84.1,21.9z M77.8,19.6c0.2,0.2,0.4,0.5,0.7,0.7c-0.1-0.3-0.1-0.6-0.2-1C78.1,19.4,78,19.5,77.8,19.6z"/>
			<path class="st2" d="M146.3,36.3c-0.8,0.8-1.5,1.5-2.3,2.2c-1,0.8-2,1.7-3.4,1.9c-0.9,0.1-1.8,0.1-2.5-0.6
				c-0.7-0.7-0.9-1.6-0.8-2.6c0.3-1.8,1-3.4,1.9-5c0.6-1.2,1.2-2.3,1.8-3.5c0.1-0.2,0.1-0.3,0.2-0.5c0,0-0.1-0.1-0.1-0.1
				c-0.5,0.4-1.1,0.7-1.5,1.2c-1.2,1.1-2.4,2.1-3.5,3.3c-0.5,0.6-0.8,1.3-1.2,2c-0.5,1-0.9,2-1.2,3.1c-0.2,0.6-0.4,1.3-0.5,1.9
				c-0.2,0.7-0.6,1-1.2,0.7c-0.5-0.2-0.9-0.5-1.4-0.8c-0.7-0.5-0.6-1.3-0.4-2c0.4-1.2,0.7-2.4,1.2-3.5c0.5-1.2,1.1-2.3,1.6-3.5
				c0.3-0.7,0.7-1.3,1-1.9c0.1-0.1,0.1-0.2,0.1-0.3c0,0-0.1-0.1-0.1-0.1c-0.5,0.4-1.1,0.8-1.6,1.3c-0.8,0.7-1.6,1.5-2.5,2.2
				c-1.3,1.1-2.1,2.7-2.7,4.2c-0.5,1.3-1,2.6-1.3,4c-0.1,0.5-0.6,0.7-1.1,0.5c-0.7-0.2-1.2-0.6-1.6-1.1c-0.3-0.3-0.3-0.6-0.2-1
				c0.1-0.3,0.1-0.5,0.2-0.8c0,0-0.1,0-0.1-0.1c-0.2,0.2-0.3,0.4-0.5,0.6c-1,1-2.1,1.8-3.4,2.3c-1.1,0.4-2.2,0.3-3.2-0.2
				c-0.3-0.2-0.5-0.6-0.7-1c-0.2-0.4-0.2-0.8-0.4-1.3c-0.1,0.1-0.3,0.3-0.5,0.4c-0.8,0.8-1.7,1.4-2.7,1.8c-1.2,0.6-2.5,0.5-3.6-0.1
				c-0.8-0.4-1.4-1.2-1.5-2.2c0-0.2-0.1-0.4-0.1-0.7c-0.6,0.5-1.3,1.1-1.9,1.6c-1.3,1-2.8,1.8-4.5,1.8c-0.6,0-1.2-0.1-1.8-0.5
				c-0.5-0.4-0.7-1-0.8-1.6c-0.1-1,0.1-2,0.5-2.8c0.6-1.1,1.3-2,2.1-2.9c0.9-1.1,1.9-2.2,2.8-3.3c-0.5,0-1,0-1.5,0
				c-0.1,0-0.2,0.1-0.2,0.1c-0.9,1.1-1.7,2.2-2.6,3.3c-0.4,0.5-1.3,0.5-1.6,0c-0.2-0.3-0.2-0.7,0.1-1c0.7-1,1.5-2,2.2-3
				c0.1-0.1,0.2-0.3,0.1-0.4c-0.2-0.7,0-1.2,0.3-1.8c0.5-1.1,1.3-2.1,2-3.1c0.2-0.3,0.4-0.6,0.6-0.9c0.1-0.2,0.3-0.3,0.5-0.2
				c0.7,0.3,1.3,0.6,1.7,1.3c0.2,0.4,0.4,0.9,0.2,1.4c-0.3,0.5-0.5,1.1-0.8,1.6c0.5-0.2,1.1-0.4,1.6-0.6c0.8-0.3,1.6-0.7,2.3-1
				c0.5-0.2,0.9-0.2,1.3,0.1c0.2,0.2,0.5,0.4,0.7,0.7c0.3,0.5,0.2,1,0,1.4c-0.5,1-1.2,1.9-2,2.7c-1,1.1-2,2.2-3,3.4
				c-0.6,0.7-1.2,1.4-1.8,2.2c-0.3,0.4-0.5,0.9-0.8,1.4c0,0.1,0,0.3,0,0.3c0.1,0.1,0.3,0.1,0.3,0c0.7-0.3,1.3-0.6,2-1.1
				c1.3-0.8,2.2-2,3.1-3.3c0.4-0.6,0.7-1.2,1.1-1.8c0.5-0.8,1.2-1.5,1.7-2.2c1.2-1.4,2.6-2.5,4.2-3.4c1.6-0.8,3.4-1.3,5.2-0.7
				c0.6,0.2,1,0.5,1.3,1c0.4,0.7,0.5,1.5,0.4,2.3c0,0.1-0.1,0.2-0.2,0.3c-0.3,0.2-0.7,0.5-1.1,0.6c-0.4,0.2-0.7-0.1-0.8-0.6
				c0-0.1,0-0.2,0-0.2c-0.1-1.2-0.7-1.4-1.7-1.1c-2,0.5-3.2,1.9-4.3,3.4c-0.7,0.9-1.3,1.9-1.8,2.9c-0.4,0.7-0.6,1.5-0.8,2.3
				c-0.1,0.3-0.1,0.7,0,1c0,0.4,0.5,0.7,1,0.6c0.9-0.2,1.5-0.7,2.1-1.3c0.8-0.8,1.6-1.6,2.3-2.4c0.4-0.4,0.8-0.9,1.1-1.5
				c0.3-0.6,0.5-1.3,0.8-1.9c0.4-1.3,1.1-1.3,2-0.8c0.8,0.4,1.4,1.1,1.6,2.1c0.1,0.3,0,0.6-0.2,0.9c-0.7,1.5-1.5,3-2.2,4.6
				c-0.1,0.2-0.1,0.4-0.1,0.6c0.9-0.3,1.5-0.7,2.1-1.2c1.5-1.3,2.8-2.8,3.8-4.6c0.6-1,1.2-2.1,1.7-3.2c0.6-1.1,1.1-2.3,1.7-3.5
				c0.2-0.4,0.6-0.6,1.2-0.5c1.1,0.3,1.8,1,2.2,2c0,0.1,0.1,0.2,0.1,0.2c0.7-0.5,1.4-1,2.1-1.4c0.9-0.5,1.8-0.8,2.8-0.8
				c0.8,0,1.7,0.8,1.9,1.6c0.1,0.2,0.1,0.4,0.2,0.6c0.5-0.3,0.9-0.6,1.3-0.9c1-0.7,2.1-1.1,3.2-1.3c0.7-0.1,1.4,0.1,1.8,0.8
				c0.3,0.4,0.5,1,0.7,1.5c0.1,0.2,0,0.6-0.1,0.8c-0.8,1.8-1.9,3.6-2.9,5.3c-0.6,1-1.1,2.2-1.6,3.3c-0.1,0.3-0.2,0.7-0.3,1.1
				c0,0,0.1,0.1,0.1,0.1c0.6-0.4,1.2-0.7,1.7-1.1c1.2-0.9,2.2-1.9,3.1-3.1c0.5-0.6,0.8-1.3,1.2-2c0.5-0.9,1.1-1.8,1.8-2.6
				c1-1.3,2.3-2.4,3.8-3.2c1.5-0.8,3.2-1.3,5-0.9c1.3,0.3,1.9,0.8,2.1,2.3c0.1,0.6,0.3,1.1,0.4,1.7c0.2,1.1,0,2.3-0.3,3.4
				c-0.4,1.5-1.2,2.8-2.1,4c-0.5,0.7-1.1,1.3-1.7,1.9c-0.8,0.7-1.7,1.4-2.6,1.9c-1.3,0.7-2.7,0.8-4.2,0.4c-1.8-0.5-2.8-1.8-3.1-3.6
				C146.4,36.5,146.3,36.4,146.3,36.3z M157.4,27.1c0,0,0-0.1,0-0.1c-0.3,0.1-0.7,0.1-1,0.2c-1.1,0.3-2,0.9-2.8,1.7
				c-1.2,1.2-2.2,2.7-2.9,4.3c-0.4,1.1-0.8,2.2-0.4,3.4c0.1,0.5,0.4,0.8,0.9,1c0.8,0.2,1.4,0,2.1-0.4c1.5-0.9,2.6-2.2,3.6-3.7
				c0.4-0.6,0.7-1.3,1-1.9c0.3-0.6,0.5-1.3,0.5-2c-0.9,0.4-1.6,1-1.9,1.9c0,0.1-0.2,0.2-0.3,0.2c-0.5,0-0.9-0.4-0.9-0.9
				c0-0.2,0-0.4,0-0.5c0-1,0.3-1.9,1.2-2.5C156.8,27.5,157.1,27.3,157.4,27.1z"/>
		</g>
	</g>
</g>
<g id="favi">
</g>
</svg>
