<?xml version="1.0" encoding="utf-8"?>
<!-- Generator: Adobe Illustrator 24.1.2, SVG Export Plug-In . SVG Version: 6.00 Build 0)  -->
<svg version="1.1" id="Calque_1" xmlns="http://www.w3.org/2000/svg" xmlns:xlink="http://www.w3.org/1999/xlink" x="0px" y="0px"
	 viewBox="0 0 240.9 231" style="enable-background:new 0 0 240.9 231;" xml:space="preserve">
<style type="text/css">
	.st0{fill:#E90000;}
	.st1{fill:#2B2B2B;}
	.st2{fill:#292929;}
	.st3{fill:#1D1D1D;}
	.st4{fill:#272727;}
	.st5{fill:#1B1B1B;}
	.st6{fill:#232323;}
	.st7{fill:#1D1B1B;}
	.st8{fill:#252525;}
	.st9{fill:#1E1E1E;}
	.st10{fill:#1F1F1F;}
	.st11{fill:#202020;}
	.st12{fill:#F50000;}
	.st13{fill:#911315;}
	.st14{fill:#212D2E;}
	.st15{fill:#2E2E2E;}
	.st16{fill:#1F2D2E;}
	.st17{fill:#F40000;}
	.st18{fill:#202D2D;}
</style>
<g>
	<path class="st0" d="M108.3,203.2c-4.2,0.4-5.7-1.8-6-5.2c-0.2-3.3-0.3-6.6-0.4-9.9c-0.1-30.7-0.1-61.5-0.3-92.2
		c0-5,1.4-8.7,6.4-11.7c10.4-6,12.8-16.1,13.6-26.6c0.3-3.3,0.2-6.6,0.3-9.9c0.5-0.3,1-0.3,1.5-0.1c5.1,5.3,9,11.4,13.3,17.2
		c2.8,3.8,6.2,6.4,11.3,6.6c1.6,0,3.3,0,4.9-0.1c12.3-2.3,23.6-7.3,35.4-11c6.5-2,13-4.1,19.4-6.5c3.8-1.4,7.8-2,10.7,1.4
		c3.2,3.6,0.9,6.8-1.5,9.9c-9.4,12-19.4,23.7-29,35.7c-2.5,3.2-5,6.4-7.1,9.9c-0.3,0.4-0.6,0.8-0.9,1.2c-1.4,1.9-1.4,3.9,0,5.8
		c0.3,0.4,0.6,0.8,0.9,1.2c6.3,11.1,15.5,20.3,23.4,30.3c4.2,5.3,8.5,10.6,12.9,15.7c2.4,2.8,4.4,6,1.7,9.5c-2.6,3.5-6.5,3-10.1,1.8
		c-14-4.6-28.1-9-42-13.9c-18.4-6.6-23-5.5-33.8,9.7c-6.3,8.8-13,17.3-19.2,26.2C112.5,200.4,111.2,202.7,108.3,203.2z"/>
	<path class="st1" d="M147.6,72.7c-4.2,0.1-7.6-1.8-9.9-4.8c-5.1-6.5-9.9-13.3-14.7-19.9c-1-4.7-0.2-9.5-0.4-14.3
		c0-1.1,0.4-2,1.6-2.5c6.8,9,13.8,17.8,20.3,27c2.9,4,5.7,5,10.6,3.3c16.7-5.8,33.5-11.2,50.3-16.7c1.5-0.5,3-1.4,4.8-1.1
		c2.2,0.7,4.4,0.7,6.6,0c6.4,1.7,10.8,5.1,12.2,11.4c0.3,2.8-0.6,5.5-0.1,8.3c-0.7,5.9-5.8,9.3-9.1,13.6c-9,11.7-18.8,23-28.1,34.5
		c-2.1,2.6-2.1,5.6,0,8.2c11.5,13.8,23,27.7,34.6,41.4c4.8,5.7,5.2,13,0.7,19.4c-4.1,6-10.8,8.7-18.3,6.3
		c-17.2-5.3-34.3-11-51.5-16.6c-8.1-2.6-8.7-2.5-13.6,4.1c-9.4,12.8-18.7,25.7-28.3,38.3c-3.1,4-6.3,8.5-12.4,9.4
		c-2.2-0.9-4.5-0.8-6.7,0c-7-1.6-11.3-5.6-12.2-12.5c0.4-0.5,0.7-1.1,0.9-1.8c0.3-38.8,0.1-77.6,0.1-116.4c-0.1-1-0.5-1.9-0.9-2.7
		c0.8-8.2,5-14.3,13.1-17.8c4.3-1.9,3.9-6.3,5.6-9.6c0.6,0.4,1,0.9,0.2,1.5c0.5-0.2,0.6-0.5,0.6-1c-0.1-1.1,0.4-2.3-0.5-3.3
		c-0.1-14.6-0.1-29.2-0.1-43.7c0-2.1-0.2-4.3,3.5-4.7c3.1-0.3,5.7-1.5,6.5,2.6c-1.1,13.6-0.2,27.2-0.4,40.8c0,2.7-0.6,5.5,0.4,8.2
		c-0.1,8-3.6,14.4-11,18.4c-5,2.7-7.2,6.6-8,11.6c-0.3,2-0.4,4.1-0.4,6.2c0,34.6,0,69.3,0,103.9c0,1.6,0,3.1,0.2,4.7
		c0.8,4.9,5.4,6.8,9.7,3.8c2.4-1.7,4.3-3.8,4.9-6.7c8.7-11.9,17.6-23.6,26.2-35.6c7.3-10.1,13.7-12.5,26-8.5
		c16,5.1,31.8,10.5,47.8,15.7c3.2,1.1,6.8,2.9,9.6-0.7c2.7-3.6,0-6.2-2.2-8.8c-10.6-12.9-21.3-25.9-31.9-38.8c-2-2.4-3.4-5-4-7.9
		c0-0.2,0-0.4,0-0.7c0.1-2,0.1-4,0-6c0-0.2,0-0.4,0.1-0.7c1.1-4.4,4.4-7.6,7.1-11c9.7-12.1,19.5-24,29.3-36.1
		c1.9-2.4,4.1-4.8,1.7-7.9c-2.5-3.2-5.7-2.4-9-1.3c-16.2,5.4-32.5,10.8-48.8,16.2c-2.3,0.7-4.4,1.8-7,1.5
		C151.3,72,149.4,72,147.6,72.7z"/>
	<path class="st1" d="M64.9,218.8c-1.6-1.7-0.8-3.6-0.8-5.5c-0.1-38.7-0.1-77.4,0-116.1c0-7.9-1.8-14.5-9.7-19
		c-6.4-3.6-9.3-9.7-9.9-16.7C43.4,45.8,44.4,30,44,14.2C44,11.7,45,9.3,48.2,8.9c2.8-0.4,5.3,0.1,5.6,3.4c-0.4,0.5-0.7,1-0.9,1.6
		c-0.4,15.5,0,31-0.2,46.4c0.1,0.3-0.3,1-0.1,1c0.6-0.1,0.7-0.9,1.3-1.2C54,68.4,61.7,71.4,66.9,76c3.5,3.1,5.5,6.7,6,11.2
		c-0.2,41.5,0,83-0.1,124.4c0,2.4-0.3,4.9,0.4,7.3C70.4,222.8,67.6,222.6,64.9,218.8c1.3-1.8,0.6-3.7,0.6-5.6
		c0-38.2,0-76.3,0.1-114.5c0-1.8-0.3-3.6-0.1-4.4c0,39,0,79,0,118.9C65.5,215.1,66.1,217,64.9,218.8z"/>
	<path class="st1" d="M54.9,139.4c-12.9-3-26.6-4.1-37.6-11.7c-10.1-7-8-21.6,3.6-25.8c10.2-3.7,20.8-6.1,31.2-9.1
		c2.2-0.6,3,0.1,2.9,2.2c-0.2,2.8-0.2,5.5-0.3,8.3c-1,2-3.2,2.1-5,2.8c-8.1,2.7-16.8,4-24.6,7.6c-0.4,0.3-0.8,0.6-1.2,0.9
		c-0.6,0.9-2.1,1.7-0.4,3c0.8,0.2,1.4,0.6,2,1c6.9,3.2,14.5,4.3,21.7,6.5c2.6,0.8,5.5,1,7.2,3.5C55.5,132,54.7,135.7,54.9,139.4z"/>
	<path class="st0" d="M23.6,113.4c1.2-2,3.4-2.5,5.5-3.1c8.5-2.4,17-4.8,25.6-7.1c0.1,8.3,0.1,16.5,0.2,24.8
		c-0.3,0.4-0.6,0.5-1.1,0.2c-7.9-2.2-15.9-4.3-23.8-6.5c-2.2-0.6-4.8-0.8-6-3.1C24,116.8,23.2,115.2,23.6,113.4z"/>
	<path class="st1" d="M64,13.4c0.4-3,2.6-4.2,5.5-3.8c3,0.4,4.4,2.3,4.4,5.1c0,14.7,0.1,29.4,0,44.1c0,2.7-1.7,5-4.8,5.1
		c-3.1,0.1-5.3-1.3-5.1-4.7C64.7,43.9,64.7,28.7,64,13.4z"/>
	<path class="st1" d="M92.2,61.5c-1.2,2.6-3.4,2.9-6,2.2c-2.5-0.7-3.4-2.6-3.4-4.9c0-14.7,0-29.5,0-44.2c0-2.3,1.1-4,3.5-4.8
		c2.3-0.7,4.4-0.6,5.2,2c0.6,14.2,0.1,28.3,0.3,42.5C91.8,56.7,91.5,59.1,92.2,61.5z"/>
	<path class="st2" d="M73.2,218.9c-2.2-1.3-1.5-3.4-1.5-5.2c0-39.8,0-79.6-0.1-119.4c0-2.5,0.7-4.8,1.2-7.1c1.5,2.2,1.1,4.7,1.1,7.1
		c0,40.2,0,80.4,0,120.6C74,216.2,74.4,217.7,73.2,218.9z"/>
	<path class="st3" d="M84.1,88.4c0.3,0.3,0.7,0.7,1,1c0.9,1.3,0.5,2.7,0.5,4.1c0,37.3,0,74.5,0,111.8c0,1.4,0.4,2.8-0.6,4l-0.5,0
		l-0.5,0c-0.2-1.9-0.6-3.8-0.6-5.6c0-36.4,0-72.7,0-109.1C83.5,92.6,83.9,90.5,84.1,88.4z"/>
	<path class="st4" d="M92.2,61.5c-1.6-0.8-1.5-2.2-1.5-3.6c0-14.4,0-28.7,0-43.1c0-1,0.5-2,0.8-3c2,0.3,1.3,1.8,1.3,2.9
		c0,15,0,30,0,44.9C92.8,60.2,92.4,60.8,92.2,61.5z"/>
	<path class="st5" d="M52.7,12.3c0.4,0,0.7,0,1.1,0c0.7,15.9,0.4,31.8,0.2,47.7c-0.7,0.6,0.8,2.3-1.2,2.3
		c-1.2-9.1-0.5-18.2-0.5-27.3C52.2,27.5,51.5,19.9,52.7,12.3z"/>
	<path class="st6" d="M112.9,61.3c-1.1-0.9-1-2.2-1-3.4c0-14.1,0-28.1,0-42.2c0-1.2-0.1-2.5,1-3.4C112.8,28.7,112.9,45,112.9,61.3z"
		/>
	<path class="st6" d="M64,13.4c0.9,0.8,1,1.8,1,2.9c0,13.4,0,26.7,0,40.1c0,1.1,0,2.1-1,2.9C63.5,43.9,63.5,28.7,64,13.4z"/>
	<path class="st7" d="M53.8,128.2c0.3-0.1,0.7-0.2,1.1-0.2c1.1,3.8,1.1,7.6,0,11.4C52.9,135.8,54.2,131.9,53.8,128.2z"/>
	<path class="st8" d="M124.1,31.2c-2.2,5.5-0.5,11.2-1.1,16.7c-0.3-0.1-0.6-0.2-1-0.2c-0.1-5.5-0.2-11-0.2-16.4c0-0.8-0.3-2,0.9-2
		C123,29.2,123.6,30.5,124.1,31.2z"/>
	<path class="st9" d="M228.9,63.4c-1.5-2.8-1.6-5.5,0.1-8.3C230.3,57.9,230.1,60.6,228.9,63.4z"/>
	<path class="st10" d="M216.7,43.7c-2.2,1.5-4.4,1.4-6.6,0C212.3,43,214.5,42.9,216.7,43.7z"/>
	<path class="st5" d="M96.2,221.8c2.2-1.5,4.5-1.6,6.7,0C100.7,222.3,98.5,222.3,96.2,221.8z"/>
	<path class="st11" d="M103,58.2c1.2,0.8,1.1,2,1,3.2c0,0.4,0.1,1.1-0.6,0.9c-0.3-0.1-0.4-0.8-0.6-1.3
		C102.8,60.1,102.9,59.1,103,58.2z"/>
	<path class="st12" d="M178.9,118.6c-1.9-2.4-1.9-4.8,0-7.2C180.3,113.8,180.3,116.2,178.9,118.6z"/>
	<path class="st13" d="M178.9,118.6c0-2.4,0-4.8,0-7.2c0.3,0,0.6,0,0.8,0c0,0,0.5,0.1,0.5,0.1c0.4,2.4,0.4,4.8,0,7.2
		c0,0-0.5,0.1-0.5,0.1C179.5,118.6,179.2,118.6,178.9,118.6z"/>
	<path class="st14" d="M147.6,72.7c1.8-1.5,3.7-1.5,5.5,0C151.3,72.7,149.4,72.7,147.6,72.7z"/>
	<path class="st15" d="M85,209.3c0-40,0-79.9,0-119.9c1.8,1.5,1.1,3.6,1.1,5.4c0,36.4,0,72.7,0,109.1
		C86.1,205.8,86.9,207.8,85,209.3z"/>
	<path class="st15" d="M91.8,207.2c-1.8-1.5-1.1-3.6-1.1-5.4c0-35.3,0-70.6,0-106c0-1.8-0.7-3.9,1.1-5.4c0.9,1.3,0.5,2.7,0.5,4.1
		c0,36.2,0,72.4,0,108.6C92.3,204.5,92.6,206,91.8,207.2z"/>
	<path class="st3" d="M91.8,207.2c0-38.9,0-77.8,0-116.7c1.5,1.2,1,2.9,1,4.4c0,36,0,72,0,108C92.7,204.3,93.2,206,91.8,207.2z"/>
	<path class="st16" d="M180.2,118.6c-0.5-2.4-0.5-4.8,0-7.2C181.5,113.8,181.5,116.2,180.2,118.6z"/>
	<path class="st11" d="M64.9,218.8c0-42.3,0-84.6,0-127.4c1.9,1.6,1.1,3.1,1.1,4.4c0.1,39.2,0.1,78.4,0,117.6
		C66.1,215.2,66.8,217.3,64.9,218.8C64.9,218.8,64.9,218.8,64.9,218.8z"/>
	<path class="st15" d="M52.7,12.3c0,16.7,0,33.4,0,50c-1.4-1-1.1-2.5-1.1-3.8c0-14.1,0-28.3,0-42.4C51.6,14.8,51.3,13.3,52.7,12.3z"
		/>
	<path class="st17" d="M23.6,113.4c1.7,1.6,1.5,3.3,0.3,5.1c-0.5-0.3-0.9-0.7-1.4-1c-0.8-1.4-1-2.8,0.1-4.1
		C23,113.4,23.3,113.4,23.6,113.4z"/>
	<path class="st18" d="M22.7,113.5c0,1.4-0.1,2.7-0.1,4.1C20.6,116.1,21.1,114.8,22.7,113.5z"/>
</g>
</svg>
